<svg xmlns="http://www.w3.org/2000/svg" xmlns:xlink="http://www.w3.org/1999/xlink" version="1.1" width="512" height="512" viewBox="0 0 100 100">
	<defs>
		<linearGradient id="Gradient_1" gradientUnits="userSpaceOnUse" x1="50" y1="55" x2="50" y2="0" spreadMethod="pad">
		<stop offset="0%" stop-color="#0C1011" stop-opacity="0.1"/>
		<stop offset="100%" stop-color="#0C1011" stop-opacity="0.4"/>
		</linearGradient>
		<linearGradient id="Gradient_2" gradientUnits="userSpaceOnUse" x1="100" y1="44" x2="15" y2="44" spreadMethod="pad">
			<stop offset="0%" stop-color="#0C1011" stop-opacity="0.1"/>
			<stop offset="100%" stop-color="#0C1011" stop-opacity="0.4"/>
		</linearGradient>
		<linearGradient id="Gradient_3" gradientUnits="userSpaceOnUse" x1="0" y1="44" x2="85" y2="44" spreadMethod="pad">
			<stop offset="0%" stop-color="#0C1011" stop-opacity="0.1"/>
			<stop offset="100%" stop-color="#0C1011" stop-opacity="0.4"/>
		</linearGradient>
		<g id="background">
			<path fill="url(#background-gradient)" stroke="none" d=" M 96.1 30.55 Q 92.3 21.55 85.35 14.6 78.45 7.7 69.5 3.9 60.2 0 50.05 0 39.85 0 30.55 3.9 21.55 7.7 14.65 14.6 7.75 21.55 3.95 30.55 0 39.8 0 50 0 60.15 3.95 69.45 7.75 78.4 14.65 85.35 21.55 92.25 30.55 96.05 39.85 100 50.05 100 60.2 100 69.5 96.05 78.45 92.25 85.35 85.35 92.3 78.4 96.1 69.45 100 60.15 100 50 100 39.8 96.1 30.55 Z"/>
		</g>
		<mask id="mask">
			<path fill="#FFFFFF" stroke="none" d=" M 96.1 30.55 Q 92.3 21.55 85.35 14.6 78.45 7.7 69.5 3.9 60.2 0 50.05 0 39.85 0 30.55 3.9 21.55 7.7 14.65 14.6 7.75 21.55 3.95 30.55 0 39.8 0 50 0 60.15 3.95 69.45 7.75 78.4 14.65 85.35 21.55 92.25 30.55 96.05 39.85 100 50.05 100 60.2 100 69.5 96.05 78.45 92.25 85.35 85.35 92.3 78.4 96.1 69.45 100 60.15 100 50 100 39.8 96.1 30.55 Z"/>
		</mask>
		<g id="gloss-top">
			<path fill="url(#Gradient_1)" stroke="none" d=" M 95.05 28.3 Q 91 19.9 84.2 13.5 77.35 7.1 68.7 3.6 59.75 0 50 0 40.25 0 31.3 3.6 22.6 7.1 15.75 13.5 8.95 19.9 4.9 28.3 0.7 37.05 0.1 46.65 10.45 50.55 23 52.65 36 54.8 50 54.8 63.95 54.8 77 52.65 89.55 50.55 99.85 46.65 99.2 37.05 95.05 28.3 Z"/>
		</g>
		<g id="gloss-right">
			<path fill="url(#Gradient_2)" stroke="none" d=" M 96.1 30.55 Q 92.3 21.55 85.35 14.6 78.45 7.7 69.5 3.9 60.2 0 50.05 0 40 0 30.8 3.8 22 7.45 15.1 14.2 L 83.4 87.25 Q 91.15 80.25 95.55 70.7 100 60.9 100 50 100 39.8 96.1 30.55 Z"/>
		</g>
		<g id="gloss-left">
			<path fill="url(#Gradient_3)" stroke="none" d=" M 69.2 3.8 Q 60.05 0 50.05 0 39.85 0 30.55 3.9 21.55 7.7 14.65 14.6 7.75 21.55 3.95 30.55 0 39.8 0 50 0 60.9 4.5 70.7 8.85 80.25 16.65 87.25 L 84.95 14.2 Q 78.1 7.45 69.2 3.8 Z"/>
		</g>
		<linearGradient id="background-gradient" x1="0" y1="0" y2="1" x2="0" >
			<stop stop-color="#FFFFFF" offset="0%"/>
			<stop stop-color="#FFFFFF" offset="100%"/>
		</linearGradient>
		<g transform="scale(3.3333333333333335) translate(2.0999996662139893 0)" id="picture"><path d="M24.9 23.5l-8-9.5V5.8c1.2-.4 2-1.5 2-2.7v-.2C18.9 1.3 17.6 0 16 0H9.8C8.2 0 6.9 1.3 6.9 2.9v.2c0 1.3.8 2.4 2 2.7V14l-8 9.5c-1 1.2-1.2 2.8-.6 4.2.6 1.4 2 2.3 3.7 2.3h17.8c1.6 0 3-.9 3.7-2.3.6-1.4.4-3-.6-4.2zm-6-4c-.3.2-.7.4-1.1.4-.8.1-1.7 0-2.4-.5-.4-.2-.7-.5-1.1-.8-.3-.2-.6-.5-.9-.7-1.2-.8-3-1.1-4.6-.9l1.8-2c.2-.2.2-.4.2-.6V14h1.5c.3 0 .5-.2.5-.5s-.2-.5-.4-.5h-1.5v-1h1.5c.3 0 .5-.2.5-.5s-.3-.5-.5-.5h-1.5v-1h1.5c.2 0 .5-.2.5-.5s-.3-.5-.5-.5h-1.5V8h1.5c.2 0 .5-.2.5-.5s-.3-.5-.5-.5h-1.5V6h4v8.4c0 .2.1.5.2.6l3.8 4.5zM8.9 2.9c0-.5.4-.9.9-.9H16c.5 0 .9.4.9.9v.2c0 .5-.4.9-.9.9H9.8c-.5 0-.9-.4-.9-.9v-.2zm14.7 23.9c-.3.7-1 1.2-1.9 1.2H4c-.8 0-1.5-.4-1.9-1.2-.3-.7-.2-1.5.3-2.1l5.5-6.5c1.6-.5 3.8-.4 5.1.5.3.2.5.4.8.6.4.3.8.7 1.2.9.7.4 1.5.7 2.4.7.2 0 .5 0 .7-.1.7-.1 1.2-.3 1.6-.7l3.8 4.5c.4.7.5 1.5.1 2.2z M8.9 21c-1.7 0-3 1.3-3 3s1.3 3 3 3 3-1.3 3-3-1.4-3-3-3zm0 5c-1.1 0-2-.9-2-2s.9-2 2-2 2 .9 2 2-.9 2-2 2zm6-5c-1.1 0-2 .9-2 2s.9 2 2 2 2-.9 2-2-.9-2-2-2zm0 3c-.6 0-1-.4-1-1s.4-1 1-1 1 .4 1 1-.5 1-1 1z"/></g>
		<linearGradient id="picture-gradient" x1="0" y1="0" y2="1" x2="0" >
			<stop stop-color="#0C1011" offset="0%"/>
			<stop stop-color="#0C1011" offset="100%"/>
		</linearGradient>
	</defs>
	<use xlink:href="#background" fill="url(#background-gradient)" />
	<g mask="url(#mask)">
		<g transform="translate(50 50) translate(0 0) scale(0.55) translate(-50 -50)">
			<use xlink:href="#picture" fill="url(#picture-gradient)"  />
		</g>
	</g>
</svg>
