<?xml version="1.0" standalone="no"?>
<!DOCTYPE svg PUBLIC "-//W3C//DTD SVG 20010904//EN"
 "http://www.w3.org/TR/2001/REC-SVG-20010904/DTD/svg10.dtd">
<svg version="1.0" xmlns="http://www.w3.org/2000/svg"
 width="700.000000pt" height="700.000000pt" viewBox="0 0 700.000000 700.000000"
 preserveAspectRatio="xMidYMid meet">
<metadata>
Created by potrace 1.11, written by Peter Selinger 2001-2013
</metadata>
<g transform="translate(0.000000,700.000000) scale(0.100000,-0.100000)"
fill="#000000" stroke="none">
<path d="M3278 6995 c-2 -1 -41 -6 -88 -9 -47 -4 -98 -9 -115 -11 -224 -32
-210 -29 -375 -67 -74 -16 -201 -52 -281 -78 -158 -52 -415 -154 -440 -176 -8
-8 -20 -14 -26 -14 -35 0 -428 -237 -541 -327 -13 -10 -49 -38 -80 -62 -207
-162 -440 -399 -602 -611 -19 -25 -37 -47 -41 -50 -3 -3 -49 -70 -101 -150
-222 -339 -379 -689 -478 -1065 -23 -89 -66 -302 -76 -380 -3 -27 -8 -59 -10
-70 -25 -132 -25 -690 1 -836 2 -13 7 -46 10 -74 7 -73 22 -153 50 -285 33
-154 105 -380 179 -558 49 -121 159 -346 201 -412 14 -22 25 -42 25 -45 0 -4
45 -72 99 -153 154 -227 288 -389 471 -567 83 -81 126 -120 230 -209 35 -30
206 -156 260 -191 25 -17 47 -32 50 -35 3 -3 17 -12 32 -20 15 -8 62 -36 105
-61 180 -107 401 -209 616 -285 75 -26 333 -101 377 -109 14 -3 36 -7 50 -10
82 -16 128 -25 155 -29 66 -10 121 -18 145 -22 69 -11 246 -19 430 -19 229 1
346 8 490 31 19 3 53 7 75 10 22 3 48 7 57 10 10 3 30 7 45 10 113 18 372 90
508 141 199 74 521 225 583 274 14 10 29 19 34 19 5 0 14 5 21 10 7 6 64 45
127 87 237 156 532 416 693 610 19 23 42 49 51 58 37 38 206 271 278 385 95
151 224 404 277 545 13 33 27 71 33 85 14 34 87 258 92 284 3 11 16 66 29 121
28 113 44 189 52 255 3 25 8 52 10 60 2 8 7 42 10 75 4 33 9 78 11 100 9 75
11 550 3 615 -4 36 -10 90 -13 120 -13 114 -32 232 -47 300 -6 25 -13 55 -15
66 -14 73 -70 269 -105 371 -282 805 -837 1473 -1576 1898 -231 132 -550 265
-793 330 -34 10 -227 54 -250 58 -14 3 -52 10 -85 16 -33 6 -78 13 -100 16
-22 2 -58 7 -80 10 -22 3 -62 8 -90 11 -54 6 -551 14 -557 9z"/>
</g>
</svg>
